<?xml version="1.0" encoding="UTF-8" standalone="no"?>
<!--
Copyright 2025, Google Inc.
All rights reserved.

Redistribution and use in source and binary forms, with or without
modification, are permitted provided that the following conditions are
met:

    * Redistributions of source code must retain the above copyright
notice, this list of conditions and the following disclaimer.
    * Redistributions in binary form must reproduce the above
copyright notice, this list of conditions and the following disclaimer
in the documentation and/or other materials provided with the
distribution.
    * Neither the name of Google Inc. nor the names of its
contributors may be used to endorse or promote products derived from
this software without specific prior written permission.

THIS SOFTWARE IS PROVIDED BY THE COPYRIGHT HOLDERS AND CONTRIBUTORS
"AS IS" AND ANY EXPRESS OR IMPLIED WARRANTIES, INCLUDING, BUT NOT
LIMITED TO, THE IMPLIED WARRANTIES OF MERCHANTABILITY AND FITNESS FOR
A PARTICULAR PURPOSE ARE DISCLAIMED. IN NO EVENT SHALL THE COPYRIGHT
OWNER OR CONTRIBUTORS BE LIABLE FOR ANY DIRECT, INDIRECT, INCIDENTAL,
SPECIAL, EXEMPLARY, OR CONSEQUENTIAL DAMAGES (INCLUDING, BUT NOT
LIMITED TO, PROCUREMENT OF SUBSTITUTE GOODS OR SERVICES; LOSS OF USE,
DATA, OR PROFITS; OR BUSINESS INTERRUPTION) HOWEVER CAUSED AND ON ANY
THEORY OF LIABILITY, WHETHER IN CONTRACT, STRICT LIABILITY, OR TORT
(INCLUDING NEGLIGENCE OR OTHERWISE) ARISING IN ANY WAY OUT OF THE USE
OF THIS SOFTWARE, EVEN IF ADVISED OF THE POSSIBILITY OF SUCH DAMAGE.
-->
<svg xmlns="http://www.w3.org/2000/svg"
     version="1.1"
     viewBox="-5 -5 110 110">
    <path id="Path"
          fill="black" stroke="black" stroke-width="1"
          d="M 79.59,66.44
           C 79.59,69.34 78.93,72.20 77.61,75.03
             76.30,77.86 74.45,80.25 72.08,82.22
             69.47,84.34 66.44,86.01 62.97,87.20
             59.50,88.40 55.33,89.00 50.45,89.00
             45.21,89.00 40.50,88.51 36.31,87.53
             32.13,86.55 27.88,85.09 23.55,83.16
             23.55,83.16 23.55,71.00 23.55,71.00
             23.55,71.00 24.23,71.00 24.23,71.00
             27.91,74.20 32.16,76.67 36.97,78.41
             41.79,80.14 46.32,81.00 50.55,81.00
             56.54,81.00 61.20,79.81 64.53,77.42
             67.88,75.03 69.55,71.84 69.55,67.84
             69.55,64.55 68.75,62.12 67.17,60.56
             65.60,59.00 63.20,57.79 59.97,56.92
             57.53,56.26 54.88,55.71 52.03,55.28
             49.19,54.84 46.17,54.29 42.98,53.62
             36.54,52.23 31.75,49.84 28.64,46.47
             25.54,43.09 23.98,38.70 23.98,33.27
             23.98,27.05 26.55,21.95 31.70,17.97
             36.85,13.99 43.38,12.00 51.28,12.00
             56.39,12.00 61.08,12.51 65.34,13.52
             69.60,14.52 73.38,15.76 76.67,17.23
             76.67,17.23 76.67,29.00 76.67,29.00
             76.67,29.00 75.98,29.00 75.98,29.00
             73.22,26.42 69.59,24.27 65.08,22.56
             60.57,20.86 55.95,20.00 51.23,20.00
             46.05,20.00 41.89,21.15 38.75,23.45
             35.61,25.75 34.05,28.70 34.05,32.31
             34.05,35.41 34.83,37.84 36.39,39.59
             37.95,41.36 40.70,42.70 44.64,43.64
             46.72,44.11 49.68,44.68 53.52,45.34
             57.36,46.00 60.61,46.68 63.28,47.38
             68.69,48.84 72.75,51.06 75.48,54.02
             78.22,56.98 79.59,61.12 79.59,66.44 Z"/>
</svg>
